<svg id="레이어_1" data-name="레이어 1" xmlns="http://www.w3.org/2000/svg" viewBox="0 0 27.24 30"><defs><style>.cls-1{fill:#8746ff;}</style></defs><path class="cls-1" d="M27.24,25.26a4.74,4.74,0,1,1-9.48,0A3.82,3.82,0,0,1,18,23.82L8.28,18.18a4.66,4.66,0,0,1-3.54,1.56,4.74,4.74,0,0,1,0-9.48,4.85,4.85,0,0,1,3.54,1.56L18,6.18a6,6,0,0,1-.24-1.44,4.74,4.74,0,1,1,9.48,0A4.71,4.71,0,0,1,22.5,9.48,4.85,4.85,0,0,1,19,7.92L9.24,13.56A6,6,0,0,1,9.48,15a3.82,3.82,0,0,1-.24,1.44L19,22.08a4.66,4.66,0,0,1,3.54-1.56A4.71,4.71,0,0,1,27.24,25.26Z"/></svg>