<svg id="레이어_1" data-name="레이어 1" xmlns="http://www.w3.org/2000/svg" viewBox="0 0 100 100"><defs><style>.cls-1{fill:#ffed34;}.cls-2{fill:#391b1b;}</style></defs><circle class="cls-1" cx="50" cy="50" r="50"/><path class="cls-2" d="M50,23.52c-17.12,0-31,11-31,24.51,0,8.81,5.88,16.53,14.71,20.85C33.06,71.3,31.36,77.65,31,79c-.42,1.68.62,1.66,1.3,1.21l11.93-8.11a38.61,38.61,0,0,0,5.75.43c17.12,0,31-11,31-24.51S67.12,23.52,50,23.52"/><path class="cls-1" d="M37.53,40.81H28.46a1.54,1.54,0,0,0,0,3.08h2.95V54.75a1.52,1.52,0,0,0,.44,1.07,1.5,1.5,0,0,0,1.06.44h.33a1.5,1.5,0,0,0,1.5-1.51V43.89h2.79a1.54,1.54,0,0,0,0-3.08Z"/><path class="cls-1" d="M59.31,53.36H55.1V42.27a1.68,1.68,0,1,0-3.35,0V54.22a1.23,1.23,0,0,1,0,.54,1.4,1.4,0,0,0,1.4,1.4h6.16a1.4,1.4,0,1,0,0-2.8Z"/><path class="cls-1" d="M72.78,53.87l-4.7-6.17,4.25-4.25a1.48,1.48,0,0,0,0-2.08,1.46,1.46,0,0,0-2.08,0L65,46.62V42.27a1.67,1.67,0,1,0-3.34,0V54.59a1.67,1.67,0,1,0,3.34,0v-3.8l1-1,4.44,5.83a1.49,1.49,0,0,0,2.39-1.79Z"/><path class="cls-1" d="M50.5,54.27,46,41.91v0a2.23,2.23,0,0,0-2.12-1.3,2.17,2.17,0,0,0-2.2,1.56,1.19,1.19,0,0,0-.08.2L37.12,54.27a1.5,1.5,0,1,0,2.83,1l.77-2.19H46.9l.77,2.19a1.5,1.5,0,1,0,2.83-1Zm-8.8-4,2.08-5.93h.07l2.07,5.93Z"/></svg>