<svg id="레이어_1" data-name="레이어 1" xmlns="http://www.w3.org/2000/svg" viewBox="0 0 100 100"><defs><style>.cls-1{fill:#56acec;}.cls-2{fill:#fff;}</style></defs><circle class="cls-1" cx="50" cy="50" r="50"/><path class="cls-2" d="M44.1,71.51c18.11,0,28-15,28-28,0-.42,0-.85,0-1.27A20.18,20.18,0,0,0,77,37.11a19.78,19.78,0,0,1-5.65,1.55,9.92,9.92,0,0,0,4.33-5.45,19.85,19.85,0,0,1-6.26,2.4,9.86,9.86,0,0,0-16.78,9A28,28,0,0,1,32.34,34.3a9.86,9.86,0,0,0,3,13.14,9.75,9.75,0,0,1-4.46-1.23v.13A9.84,9.84,0,0,0,38.83,56a10.13,10.13,0,0,1-2.6.35,10.27,10.27,0,0,1-1.85-.18A9.87,9.87,0,0,0,43.58,63a19.78,19.78,0,0,1-12.23,4.22A20.31,20.31,0,0,1,29,67.08a27.83,27.83,0,0,0,15.1,4.43"/></svg>