<svg id="레이어_1" data-name="레이어 1" xmlns="http://www.w3.org/2000/svg" viewBox="0 0 100 100"><defs><style>.cls-1{fill:#999;}.cls-2{fill:#fff;}</style></defs><circle class="cls-1" cx="50" cy="50" r="50"/><path class="cls-2" d="M50.45,31.28l-6,6a13,13,0,0,0,0,18.27,12.3,12.3,0,0,0,.92.83,2.25,2.25,0,0,0,2.88-3.46c-.23-.19-.43-.37-.61-.55a8.44,8.44,0,0,1,0-11.91l6-6a8.41,8.41,0,0,1,11.9,11.9L63,48.92a2.25,2.25,0,1,0,3.18,3.19h0l2.56-2.56A12.92,12.92,0,0,0,50.45,31.28Z"/><path class="cls-2" d="M54.59,43.66a2.25,2.25,0,0,0-2.82,3.51,6.64,6.64,0,0,1,.55.51,8.41,8.41,0,0,1,0,11.9l-6,6a8.41,8.41,0,0,1-11.9-11.9L37,51.06a2.25,2.25,0,1,0-3.18-3.18l-2.59,2.59A12.92,12.92,0,0,0,49.54,68.73l6-6a12.93,12.93,0,0,0,0-18.27A12.09,12.09,0,0,0,54.59,43.66Z"/></svg>