<svg id="레이어_1" data-name="레이어 1" xmlns="http://www.w3.org/2000/svg" xmlns:xlink="http://www.w3.org/1999/xlink" viewBox="0 0 50 22"><defs><style>.cls-1{fill:url(#무제_그라디언트_23);}.cls-2{fill:url(#무제_그라디언트_23-2);}.cls-3{fill:url(#무제_그라디언트_23-3);}</style><linearGradient id="무제_그라디언트_23" x1="16.87" y1="8.24" x2="33.14" y2="8.24" gradientUnits="userSpaceOnUse"><stop offset="0" stop-color="#764aff"/><stop offset="1" stop-color="#9c57ff"/></linearGradient><linearGradient id="무제_그라디언트_23-2" x1="0" y1="11" x2="15.63" y2="11" xlink:href="#무제_그라디언트_23"/><linearGradient id="무제_그라디언트_23-3" x1="34.21" y1="11" x2="50" y2="11" xlink:href="#무제_그라디언트_23"/></defs><path class="cls-1" d="M21.9,13.15V7.94a1.58,1.58,0,0,1,1.77-1.6,1.6,1.6,0,0,1,1.77,1.6v5.21h6.24a1.34,1.34,0,0,1,1.46,1.41A1.34,1.34,0,0,1,31.68,16H18.33a1.34,1.34,0,0,1-1.46-1.41,1.34,1.34,0,0,1,1.46-1.41Zm7-8.11V3.94a.41.41,0,0,0-.44-.43H19A1.45,1.45,0,0,1,17.45,2,1.46,1.46,0,0,1,19,.52H29.59c2.05,0,2.68.78,2.68,2.49V5.06a14.4,14.4,0,0,1-1,6.16,2,2,0,0,1-2.55.93,1.45,1.45,0,0,1-.65-2A12.64,12.64,0,0,0,28.85,5Z"/><path class="cls-2" d="M15.29,12.67V1.72A1.68,1.68,0,0,0,13.54,0a1.66,1.66,0,0,0-1.76,1.72V8.49a7,7,0,0,0-2-.69V2A1.51,1.51,0,0,0,8.17.36,1.47,1.47,0,0,0,6.55,2V2.1H3.27V2A1.46,1.46,0,0,0,1.69.36,1.52,1.52,0,0,0,0,2v4.3C0,8.15.49,8.81,2.4,8.81H4.58a7.17,7.17,0,1,0,11.05,6A7,7,0,0,0,15.29,12.67Zm-12-6.83V4.47H6.55v1.8H3.74C3.35,6.27,3.27,6.22,3.27,5.84ZM8.46,19a4.13,4.13,0,1,1,4.13-4.13A4.13,4.13,0,0,1,8.46,19Z"/><path class="cls-3" d="M49.62,12.55V1.72A1.68,1.68,0,0,0,47.87,0a1.66,1.66,0,0,0-1.76,1.72V8.46a6.73,6.73,0,0,0-.73-.32A1.14,1.14,0,0,0,44.23,7h-6c-.31,0-.45-.17-.45-.4V6.46a.4.4,0,0,1,.45-.41h5.65V2.62c0-1.3-.71-2.19-2.49-2.19H35.46A1.15,1.15,0,0,0,34.3,1.67a1.13,1.13,0,0,0,1.16,1.2H40c.31,0,.43.1.43.33v.59H36.9a2.39,2.39,0,0,0-2.69,2.5v.33A2.61,2.61,0,0,0,36.9,9.38h1.29a7.17,7.17,0,1,0,11.43,3.17ZM42.83,19A4.13,4.13,0,1,1,47,14.83,4.14,4.14,0,0,1,42.83,19Z"/></svg>