<svg xmlns:xlink="http://www.w3.org/1999/xlink" id="레이어_1" data-name="레이어 1" xmlns="http://www.w3.org/2000/svg" viewBox="0 0 116.6 38"><defs><style>.cls-1{fill:url(#무제_그라디언트_5);}.cls-2{fill:url(#무제_그라디언트_5-2);}.cls-3{fill:url(#무제_그라디언트_5-3);}</style><linearGradient id="무제_그라디언트_5" y1="19" x2="35.9" y2="19" gradientUnits="userSpaceOnUse"><stop offset="0" stop-color="#764aff"/><stop offset="1" stop-color="#9c57ff"/></linearGradient><linearGradient id="무제_그라디언트_5-2" x1="39.18" y1="19.14" x2="76.93" y2="19.14" xlink:href="#무제_그라디언트_5"/><linearGradient id="무제_그라디언트_5-3" x1="80.41" x2="116.6" xlink:href="#무제_그라디언트_5"/></defs><path class="cls-1" d="M5.57,20.45C1.13,20.45,0,18.92,0,14.68v-10C0,2,1.69.85,3.91.85S7.58,2,7.58,4.68v.2h7.63v-.2C15.21,2,16.74.85,19,.85a3.48,3.48,0,0,1,3.83,3.83V20.45ZM9.56,38C4,38,1.29,34.73,1.29,30.38S4,22.67,9.56,22.67H27.63c5.53,0,8.27,3.31,8.27,7.71S33.16,38,27.63,38Zm5.65-23.44V10.37H7.58v3.18c0,.89.21,1,1.09,1ZM25.5,32.39a1.93,1.93,0,0,0,2.21-2c0-.89-.44-1.94-2.21-1.94H11.7c-1.78,0-2.22,1-2.22,1.94a1.93,1.93,0,0,0,2.22,2ZM27.35,4a3.85,3.85,0,0,1,4.08-4A3.89,3.89,0,0,1,35.5,4V21.26H27.35Z"/><path class="cls-2" d="M50.83,30.54V18.44c0-2.63,2-3.72,4.12-3.72s4.11,1.13,4.11,3.72v12.1H73.55a3.08,3.08,0,0,1,3.38,3.26,3.09,3.09,0,0,1-3.38,3.27h-31a3.1,3.1,0,0,1-3.39-3.27,3.09,3.09,0,0,1,3.39-3.26ZM67,11.7V9.16a1,1,0,0,0-1-1H44.06a3.38,3.38,0,0,1-3.55-3.47,3.38,3.38,0,0,1,3.55-3.47H68.7C73.47,1.21,74.92,3,74.92,7v4.76c0,6.49-.81,11.25-2.34,14.32a4.69,4.69,0,0,1-5.93,2.14c-1.78-.77-2.3-2.79-1.49-4.64C66.37,20.78,67,17.1,67,11.7Z"/><path class="cls-3" d="M86.66,21.78c-4.07,0-6.25-3.06-6.25-6.41V14.6c0-3.43,2.14-5.81,6.25-5.81h8.15V7.42c0-.52-.28-.76-1-.76H83.31a2.64,2.64,0,0,1-2.7-2.79A2.66,2.66,0,0,1,83.31,1H97.07c4.12,0,5.77,2.06,5.77,5.08v8H89.73a.93.93,0,0,0-1,1v.2c0,.52.32.93,1,.93h14A2.65,2.65,0,0,1,106.35,19a2.56,2.56,0,0,1-2.66,2.78ZM90.17,38C84.57,38,82,35,82,30.74s2.59-7.34,8.19-7.34h18.24c5.52,0,8.19,3.06,8.19,7.34S113.93,38,108.41,38Zm16.06-5.45c1.65,0,2.18-.8,2.18-1.81S107.88,29,106.23,29H92.35c-1.65,0-2.18.73-2.18,1.74s.53,1.81,2.18,1.81ZM108,4a3.85,3.85,0,0,1,4.08-4,3.89,3.89,0,0,1,4.07,4v18.2H108Z"/></svg>
